<svg xmlns="http://www.w3.org/2000/svg" version="1.1" xmlns:xlink="http://www.w3.org/1999/xlink" xmlns:svgjs="http://svgjs.dev/svgjs" width="1500" height="1500" viewBox="0 0 1500 1500"><rect width="1500" height="1500" fill="#000000"></rect><g transform="matrix(0.6666666666666666,0,0,0.6666666666666666,249.39393939393938,438.5856950067477)"><svg viewBox="0 0 396 247" data-background-color="#ffffff" preserveAspectRatio="xMidYMid meet" height="935" width="1500" xmlns="http://www.w3.org/2000/svg" xmlns:xlink="http://www.w3.org/1999/xlink"><g id="tight-bounds" transform="matrix(1,0,0,1,0.2400000000000091,-0.09999999999999432)"><svg viewBox="0 0 395.52 247.2" height="247.2" width="395.52"><g><svg></svg></g><g><svg viewBox="0 0 395.52 247.2" height="247.2" width="395.52"><g transform="matrix(1,0,0,1,75.54432,94.20103917525773)"><svg viewBox="0 0 244.43135999999998 58.79792164948453" height="58.79792164948453" width="244.43135999999998"><g><svg viewBox="0 0 244.43135999999998 58.79792164948453" height="58.79792164948453" width="244.43135999999998"><g><svg viewBox="0 0 244.43135999999998 58.79792164948453" height="58.79792164948453" width="244.43135999999998"><g id="textblocktransform"><svg viewBox="0 0 244.43135999999998 58.79792164948453" height="58.79792164948453" width="244.43135999999998" id="textblock"><g><svg viewBox="0 0 244.43135999999998 58.79792164948453" height="58.79792164948453" width="244.43135999999998"><g transform="matrix(1,0,0,1,0,0)"><svg width="244.43135999999998" viewBox="1.7999999999999998 -28 116.39 28" height="58.79792164948453" data-palette-color="#000000"><path d="M18.2-6Q18.2-4.85 18-4L18-4Q18.2-3.2 18.2-2L18.2-2Q18.2-0.85 18 0L18 0 14 0Q13.8-0.85 13.8-2L13.8-2Q13.8-3.2 14-4L14-4Q13.8-4.85 13.8-6L13.8-6Q13.8-7.2 14-8L14-8 6-8Q6.2-7.2 6.2-6L6.2-6Q6.2-4.85 6-4L6-4Q6.2-3.2 6.2-2L6.2-2Q6.2-0.85 6 0L6 0 2 0Q1.8-0.85 1.8-2L1.8-2Q1.8-3.2 2-4L2-4Q1.8-4.85 1.8-6L1.8-6Q1.8-7.2 2-8L2-8 3.5-8Q3.3-8.85 3.3-10L3.3-10Q3.3-11.2 3.5-12L3.5-12Q3.3-12.85 3.3-14L3.3-14Q3.3-15.2 3.5-16L3.5-16 4.5-16Q4.3-16.85 4.3-18L4.3-18Q4.3-19.2 4.5-20L4.5-20 6-20Q5.8-20.85 5.8-22L5.8-22Q5.8-23.2 6-24L6-24 7-24Q6.8-24.85 6.8-26L6.8-26Q6.8-27.2 7-28L7-28 13-28Q13.2-27.2 13.2-26L13.2-26Q13.2-24.85 13-24L13-24 14-24Q14.2-23.2 14.2-22L14.2-22Q14.2-20.85 14-20L14-20 15.5-20Q15.7-19.2 15.7-18L15.7-18Q15.7-16.85 15.5-16L15.5-16 16.5-16Q16.7-15.2 16.7-14L16.7-14Q16.7-12.85 16.5-12L16.5-12Q16.7-11.2 16.7-10L16.7-10Q16.7-8.85 16.5-8L16.5-8 18-8Q18.2-7.2 18.2-6L18.2-6ZM12.5-12Q12.3-12.85 12.3-14L12.3-14Q12.3-15.2 12.5-16L12.5-16 11.5-16Q11.3-16.85 11.3-18L11.3-18Q11.3-19.2 11.5-20L11.5-20 8.5-20Q8.7-19.2 8.7-18L8.7-18Q8.7-16.85 8.5-16L8.5-16 7.5-16Q7.7-15.2 7.7-14L7.7-14Q7.7-12.85 7.5-12L7.5-12 12.5-12ZM36.5-4L38-4Q38.2-3.2 38.2-2L38.2-2Q38.2-0.85 38 0L38 0 34 0Q33.8-0.85 33.8-2L33.8-2Q33.8-3.2 34-4L34-4 32.5-4Q32.3-4.85 32.3-6L32.3-6Q32.3-7.2 32.5-8L32.5-8 31-8Q30.8-8.85 30.8-10L30.8-10Q30.8-11.2 31-12L31-12 26-12Q26.2-11.2 26.2-10L26.2-10Q26.2-8.85 26-8L26-8Q26.2-7.2 26.2-6L26.2-6Q26.2-4.85 26-4L26-4Q26.2-3.2 26.2-2L26.2-2Q26.2-0.85 26 0L26 0 22 0Q21.8-0.85 21.8-2L21.8-2Q21.8-3.2 22-4L22-4Q21.8-4.85 21.8-6L21.8-6Q21.8-7.2 22-8L22-8Q21.8-8.85 21.8-10L21.8-10Q21.8-11.2 22-12L22-12Q21.8-12.85 21.8-14L21.8-14Q21.8-15.2 22-16L22-16Q21.8-16.85 21.8-18L21.8-18Q21.8-19.2 22-20L22-20Q21.8-20.85 21.8-22L21.8-22Q21.8-23.2 22-24L22-24Q21.8-24.85 21.8-26L21.8-26Q21.8-27.2 22-28L22-28 36-28Q36.2-27.2 36.2-26L36.2-26Q36.2-24.85 36-24L36-24 38-24Q38.2-23.2 38.2-22L38.2-22Q38.2-20.85 38-20L38-20 37-20Q37.2-19.2 37.2-18L37.2-18Q37.2-16.85 37-16L37-16 34-16Q34.2-15.2 34.2-14L34.2-14Q34.2-12.85 34-12L34-12 35-12Q35.2-11.2 35.2-10L35.2-10Q35.2-8.85 35-8L35-8 36.5-8Q36.7-7.2 36.7-6L36.7-6Q36.7-4.85 36.5-4L36.5-4ZM33-16Q32.8-16.85 32.8-18L32.8-18Q32.8-19.2 33-20L33-20Q32.8-20.85 32.8-22L32.8-22Q32.8-23.2 33-24L33-24 26-24Q26.2-23.2 26.2-22L26.2-22Q26.2-20.85 26-20L26-20Q26.2-19.2 26.2-18L26.2-18Q26.2-16.85 26-16L26-16 33-16ZM58-24Q58.2-23.2 58.2-22L58.2-22Q58.2-20.85 58-20L58-20Q58.2-19.2 58.2-18L58.2-18Q58.2-16.85 58-16L58-16Q58.2-15.2 58.2-14L58.2-14Q58.2-12.85 58-12L58-12Q58.2-11.2 58.2-10L58.2-10Q58.2-8.85 58-8L58-8Q58.2-7.2 58.2-6L58.2-6Q58.2-4.85 58-4L58-4Q58.2-3.2 58.2-2L58.2-2Q58.2-0.85 58 0L58 0 54 0Q53.8-0.85 53.8-2L53.8-2Q53.8-3.2 54-4L54-4Q53.8-4.85 53.8-6L53.8-6Q53.8-7.2 54-8L54-8Q53.8-8.85 53.8-10L53.8-10Q53.8-11.2 54-12L54-12Q53.8-12.85 53.8-14L53.8-14Q53.8-15.2 54-16L54-16Q53.8-16.85 53.8-18L53.8-18Q53.8-19.2 54-20L54-20 52.5-20Q52.7-19.2 52.7-18L52.7-18Q52.7-16.85 52.5-16L52.5-16Q52.7-15.2 52.7-14L52.7-14Q52.7-12.85 52.5-12L52.5-12 51.5-12Q51.7-11.2 51.7-10L51.7-10Q51.7-8.85 51.5-8L51.5-8Q51.7-7.2 51.7-6L51.7-6Q51.7-4.85 51.5-4L51.5-4 48.5-4Q48.3-4.85 48.3-6L48.3-6Q48.3-7.2 48.5-8L48.5-8Q48.3-8.85 48.3-10L48.3-10Q48.3-11.2 48.5-12L48.5-12 47.5-12Q47.3-12.85 47.3-14L47.3-14Q47.3-15.2 47.5-16L47.5-16Q47.3-16.85 47.3-18L47.3-18Q47.3-19.2 47.5-20L47.5-20 46-20Q46.2-19.2 46.2-18L46.2-18Q46.2-16.85 46-16L46-16Q46.2-15.2 46.2-14L46.2-14Q46.2-12.85 46-12L46-12Q46.2-11.2 46.2-10L46.2-10Q46.2-8.85 46-8L46-8Q46.2-7.2 46.2-6L46.2-6Q46.2-4.85 46-4L46-4Q46.2-3.2 46.2-2L46.2-2Q46.2-0.85 46 0L46 0 42 0Q41.8-0.85 41.8-2L41.8-2Q41.8-3.2 42-4L42-4Q41.8-4.85 41.8-6L41.8-6Q41.8-7.2 42-8L42-8Q41.8-8.85 41.8-10L41.8-10Q41.8-11.2 42-12L42-12Q41.8-12.85 41.8-14L41.8-14Q41.8-15.2 42-16L42-16Q41.8-16.85 41.8-18L41.8-18Q41.8-19.2 42-20L42-20Q41.8-20.85 41.8-22L41.8-22Q41.8-23.2 42-24L42-24Q41.8-24.85 41.8-26L41.8-26Q41.8-27.2 42-28L42-28 47-28Q47.2-27.2 47.2-26L47.2-26Q47.2-24.85 47-24L47-24 48.5-24Q48.7-23.2 48.7-22L48.7-22Q48.7-20.85 48.5-20L48.5-20 49.25-20Q49.45-19.2 49.45-18L49.45-18Q49.45-16.85 49.25-16L49.25-16 50.75-16Q50.55-16.85 50.55-18L50.55-18Q50.55-19.2 50.75-20L50.75-20 51.5-20Q51.3-20.85 51.3-22L51.3-22Q51.3-23.2 51.5-24L51.5-24 53-24Q52.8-24.85 52.8-26L52.8-26Q52.8-27.2 53-28L53-28 58-28Q58.2-27.2 58.2-26L58.2-26Q58.2-24.85 58-24L58-24ZM78.19-6Q78.19-4.85 77.99-4L77.99-4Q78.19-3.2 78.19-2L78.19-2Q78.19-0.85 77.99 0L77.99 0 73.99 0Q73.79-0.85 73.79-2L73.79-2Q73.79-3.2 73.99-4L73.99-4Q73.79-4.85 73.79-6L73.79-6Q73.79-7.2 73.99-8L73.99-8 65.99-8Q66.19-7.2 66.19-6L66.19-6Q66.19-4.85 65.99-4L65.99-4Q66.19-3.2 66.19-2L66.19-2Q66.19-0.85 65.99 0L65.99 0 61.99 0Q61.79-0.85 61.79-2L61.79-2Q61.79-3.2 61.99-4L61.99-4Q61.79-4.85 61.79-6L61.79-6Q61.79-7.2 61.99-8L61.99-8 63.49-8Q63.29-8.85 63.29-10L63.29-10Q63.29-11.2 63.49-12L63.49-12Q63.29-12.85 63.29-14L63.29-14Q63.29-15.2 63.49-16L63.49-16 64.49-16Q64.29-16.85 64.29-18L64.29-18Q64.29-19.2 64.49-20L64.49-20 65.99-20Q65.79-20.85 65.79-22L65.79-22Q65.79-23.2 65.99-24L65.99-24 66.99-24Q66.79-24.85 66.79-26L66.79-26Q66.79-27.2 66.99-28L66.99-28 72.99-28Q73.19-27.2 73.19-26L73.19-26Q73.19-24.85 72.99-24L72.99-24 73.99-24Q74.19-23.2 74.19-22L74.19-22Q74.19-20.85 73.99-20L73.99-20 75.49-20Q75.69-19.2 75.69-18L75.69-18Q75.69-16.85 75.49-16L75.49-16 76.49-16Q76.69-15.2 76.69-14L76.69-14Q76.69-12.85 76.49-12L76.49-12Q76.69-11.2 76.69-10L76.69-10Q76.69-8.85 76.49-8L76.49-8 77.99-8Q78.19-7.2 78.19-6L78.19-6ZM72.49-12Q72.29-12.85 72.29-14L72.29-14Q72.29-15.2 72.49-16L72.49-16 71.49-16Q71.29-16.85 71.29-18L71.29-18Q71.29-19.2 71.49-20L71.49-20 68.49-20Q68.69-19.2 68.69-18L68.69-18Q68.69-16.85 68.49-16L68.49-16 67.49-16Q67.69-15.2 67.69-14L67.69-14Q67.69-12.85 67.49-12L67.49-12 72.49-12ZM98.19-6Q98.19-4.85 97.99-4L97.99-4Q98.19-3.2 98.19-2L98.19-2Q98.19-0.85 97.99 0L97.99 0 93.99 0Q93.79-0.85 93.79-2L93.79-2Q93.79-3.2 93.99-4L93.99-4Q93.79-4.85 93.79-6L93.79-6Q93.79-7.2 93.99-8L93.99-8 85.99-8Q86.19-7.2 86.19-6L86.19-6Q86.19-4.85 85.99-4L85.99-4Q86.19-3.2 86.19-2L86.19-2Q86.19-0.85 85.99 0L85.99 0 81.99 0Q81.79-0.85 81.79-2L81.79-2Q81.79-3.2 81.99-4L81.99-4Q81.79-4.85 81.79-6L81.79-6Q81.79-7.2 81.99-8L81.99-8 83.49-8Q83.29-8.85 83.29-10L83.29-10Q83.29-11.2 83.49-12L83.49-12Q83.29-12.85 83.29-14L83.29-14Q83.29-15.2 83.49-16L83.49-16 84.49-16Q84.29-16.85 84.29-18L84.29-18Q84.29-19.2 84.49-20L84.49-20 85.99-20Q85.79-20.85 85.79-22L85.79-22Q85.79-23.2 85.99-24L85.99-24 86.99-24Q86.79-24.85 86.79-26L86.79-26Q86.79-27.2 86.99-28L86.99-28 92.99-28Q93.19-27.2 93.19-26L93.19-26Q93.19-24.85 92.99-24L92.99-24 93.99-24Q94.19-23.2 94.19-22L94.19-22Q94.19-20.85 93.99-20L93.99-20 95.49-20Q95.69-19.2 95.69-18L95.69-18Q95.69-16.85 95.49-16L95.49-16 96.49-16Q96.69-15.2 96.69-14L96.69-14Q96.69-12.85 96.49-12L96.49-12Q96.69-11.2 96.69-10L96.69-10Q96.69-8.85 96.49-8L96.49-8 97.99-8Q98.19-7.2 98.19-6L98.19-6ZM92.49-12Q92.29-12.85 92.29-14L92.29-14Q92.29-15.2 92.49-16L92.49-16 91.49-16Q91.29-16.85 91.29-18L91.29-18Q91.29-19.2 91.49-20L91.49-20 88.49-20Q88.69-19.2 88.69-18L88.69-18Q88.69-16.85 88.49-16L88.49-16 87.49-16Q87.69-15.2 87.69-14L87.69-14Q87.69-12.85 87.49-12L87.49-12 92.49-12ZM117.99-24Q118.19-23.2 118.19-22L118.19-22Q118.19-20.85 117.99-20L117.99-20Q118.19-19.2 118.19-18L118.19-18Q118.19-16.85 117.99-16L117.99-16Q118.19-15.2 118.19-14L118.19-14Q118.19-12.85 117.99-12L117.99-12Q118.19-11.2 118.19-10L118.19-10Q118.19-8.85 117.99-8L117.99-8Q118.19-7.2 118.19-6L118.19-6Q118.19-4.85 117.99-4L117.99-4Q118.19-3.2 118.19-2L118.19-2Q118.19-0.85 117.99 0L117.99 0 113.99 0Q113.79-0.85 113.79-2L113.79-2Q113.79-3.2 113.99-4L113.99-4 111.49-4Q111.29-4.85 111.29-6L111.29-6Q111.29-7.2 111.49-8L111.49-8 109.99-8Q109.79-8.85 109.79-10L109.79-10Q109.79-11.2 109.99-12L109.99-12 107.99-12Q107.79-12.85 107.79-14L107.79-14Q107.79-15.2 107.99-16L107.99-16 105.99-16Q106.19-15.2 106.19-14L106.19-14Q106.19-12.85 105.99-12L105.99-12Q106.19-11.2 106.19-10L106.19-10Q106.19-8.85 105.99-8L105.99-8Q106.19-7.2 106.19-6L106.19-6Q106.19-4.85 105.99-4L105.99-4Q106.19-3.2 106.19-2L106.19-2Q106.19-0.85 105.99 0L105.99 0 101.99 0Q101.79-0.85 101.79-2L101.79-2Q101.79-3.2 101.99-4L101.99-4Q101.79-4.85 101.79-6L101.79-6Q101.79-7.2 101.99-8L101.99-8Q101.79-8.85 101.79-10L101.79-10Q101.79-11.2 101.99-12L101.99-12Q101.79-12.85 101.79-14L101.79-14Q101.79-15.2 101.99-16L101.99-16Q101.79-16.85 101.79-18L101.79-18Q101.79-19.2 101.99-20L101.99-20Q101.79-20.85 101.79-22L101.79-22Q101.79-23.2 101.99-24L101.99-24Q101.79-24.85 101.79-26L101.79-26Q101.79-27.2 101.99-28L101.99-28 106.99-28Q107.19-27.2 107.19-26L107.19-26Q107.19-24.85 106.99-24L106.99-24 108.49-24Q108.69-23.2 108.69-22L108.69-22Q108.69-20.85 108.49-20L108.49-20 109.99-20Q110.19-19.2 110.19-18L110.19-18Q110.19-16.85 109.99-16L109.99-16 111.99-16Q112.19-15.2 112.19-14L112.19-14Q112.19-12.85 111.99-12L111.99-12 113.99-12Q113.79-12.85 113.79-14L113.79-14Q113.79-15.2 113.99-16L113.99-16Q113.79-16.85 113.79-18L113.79-18Q113.79-19.2 113.99-20L113.99-20Q113.79-20.85 113.79-22L113.79-22Q113.79-23.2 113.99-24L113.99-24Q113.79-24.85 113.79-26L113.79-26Q113.79-27.2 113.99-28L113.99-28 117.99-28Q118.19-27.2 118.19-26L118.19-26Q118.19-24.85 117.99-24L117.99-24Z" opacity="1" transform="matrix(1,0,0,1,0,0)" fill="#ffffff" class="wordmark-text-0" data-fill-palette-color="primary" id="text-0"></path></svg></g></svg></g></svg></g></svg></g></svg></g></svg></g><path d="M197.691 88.201L197.691 29.262 9.014 29.262 9.014 217.938 197.691 217.938 197.691 158.999 192.388 158.999 192.388 212.636 14.317 212.636 14.317 34.564 192.388 34.564 192.388 88.201Z" fill="#ffffff" stroke="transparent" data-fill-palette-color="tertiary"></path></svg></g><defs></defs></svg><rect width="395.52" height="247.2" fill="none" stroke="none" visibility="hidden"></rect></g></svg></g></svg>